<svg xmlns="http://www.w3.org/2000/svg" xmlns:xlink="http://www.w3.org/1999/xlink" width="40" zoomAndPan="magnify" viewBox="0 0 30 30.000001" height="40" preserveAspectRatio="xMidYMid meet" version="1.0"><defs><g/></defs><g fill="#f4ce14" fill-opacity="1"><g transform="translate(1.6922, 23.86874)"><g><path d="M 15.03125 -10.796875 C 15.363281 -10.796875 15.601562 -10.867188 15.75 -11.015625 C 15.90625 -11.171875 16.144531 -11.488281 16.46875 -11.96875 L 19.890625 -17.1875 C 19.992188 -17.375 20.113281 -17.5 20.25 -17.5625 C 20.394531 -17.632812 20.546875 -17.671875 20.703125 -17.671875 L 21.171875 -17.671875 C 21.429688 -17.671875 21.625 -17.597656 21.75 -17.453125 C 21.875 -17.316406 21.9375 -17.097656 21.9375 -16.796875 L 21.9375 -2.53125 L 21.65625 -2.53125 L 21.65625 -16.796875 C 21.65625 -16.953125 21.617188 -17.085938 21.546875 -17.203125 C 21.484375 -17.328125 21.359375 -17.390625 21.171875 -17.390625 L 20.75 -17.390625 C 20.625 -17.390625 20.515625 -17.367188 20.421875 -17.328125 C 20.328125 -17.296875 20.222656 -17.1875 20.109375 -17 L 16.6875 -11.828125 C 16.351562 -11.328125 16.097656 -10.984375 15.921875 -10.796875 C 15.742188 -10.609375 15.445312 -10.515625 15.03125 -10.515625 C 14.625 -10.515625 14.332031 -10.609375 14.15625 -10.796875 C 13.976562 -10.984375 13.71875 -11.328125 13.375 -11.828125 L 9.953125 -17 C 9.835938 -17.1875 9.726562 -17.296875 9.625 -17.328125 C 9.53125 -17.367188 9.414062 -17.390625 9.28125 -17.390625 L 8.859375 -17.390625 C 8.671875 -17.390625 8.546875 -17.328125 8.484375 -17.203125 C 8.429688 -17.085938 8.40625 -16.953125 8.40625 -16.796875 L 8.40625 -2.53125 L 8.140625 -2.53125 L 8.140625 -16.796875 C 8.140625 -17.097656 8.195312 -17.316406 8.3125 -17.453125 C 8.4375 -17.597656 8.617188 -17.671875 8.859375 -17.671875 L 9.34375 -17.671875 C 9.488281 -17.671875 9.632812 -17.632812 9.78125 -17.5625 C 9.9375 -17.5 10.070312 -17.375 10.1875 -17.1875 L 13.609375 -11.96875 C 13.921875 -11.488281 14.148438 -11.171875 14.296875 -11.015625 C 14.453125 -10.867188 14.695312 -10.796875 15.03125 -10.796875 Z M 10.34375 0 C 10.695312 0 10.953125 -0.078125 11.109375 -0.234375 C 11.273438 -0.398438 11.359375 -0.660156 11.359375 -1.015625 L 11.359375 -10.875 L 13.015625 -7.828125 C 13.179688 -7.503906 13.378906 -7.269531 13.609375 -7.125 C 13.847656 -6.988281 14.144531 -6.921875 14.5 -6.921875 L 15.625 -6.921875 C 15.976562 -6.921875 16.269531 -6.988281 16.5 -7.125 C 16.738281 -7.269531 16.941406 -7.503906 17.109375 -7.828125 L 18.765625 -10.875 L 18.765625 -1.015625 C 18.765625 -0.660156 18.84375 -0.398438 19 -0.234375 C 19.15625 -0.078125 19.410156 0 19.765625 0 L 24.09375 0 C 24.445312 0 24.703125 -0.078125 24.859375 -0.234375 C 25.023438 -0.398438 25.109375 -0.660156 25.109375 -1.015625 L 25.109375 -19.1875 C 25.109375 -19.539062 25.023438 -19.796875 24.859375 -19.953125 C 24.703125 -20.109375 24.445312 -20.1875 24.09375 -20.1875 L 19.546875 -20.1875 C 19.242188 -20.1875 18.992188 -20.117188 18.796875 -19.984375 C 18.609375 -19.859375 18.429688 -19.648438 18.265625 -19.359375 L 15.765625 -14.78125 C 15.671875 -14.613281 15.585938 -14.488281 15.515625 -14.40625 C 15.453125 -14.332031 15.363281 -14.296875 15.25 -14.296875 L 15 -14.296875 C 14.894531 -14.296875 14.804688 -14.332031 14.734375 -14.40625 C 14.671875 -14.488281 14.59375 -14.613281 14.5 -14.78125 L 11.96875 -19.359375 C 11.800781 -19.648438 11.617188 -19.859375 11.421875 -19.984375 C 11.234375 -20.117188 10.988281 -20.1875 10.6875 -20.1875 L 6.171875 -20.1875 C 5.816406 -20.1875 5.554688 -20.109375 5.390625 -19.953125 C 5.234375 -19.796875 5.15625 -19.539062 5.15625 -19.1875 L 5.15625 -1.015625 C 5.15625 -0.660156 5.234375 -0.398438 5.390625 -0.234375 C 5.554688 -0.078125 5.816406 0 6.171875 0 Z M 11.25 0.03125 L 7.59375 3.0625 C 7.519531 3.132812 7.40625 3.195312 7.25 3.25 C 7.09375 3.3125 6.921875 3.34375 6.734375 3.34375 L 2.546875 3.34375 C 2.097656 3.34375 1.769531 3.238281 1.5625 3.03125 C 1.363281 2.820312 1.265625 2.492188 1.265625 2.046875 L 1.265625 -16.125 C 1.265625 -16.363281 1.296875 -16.566406 1.359375 -16.734375 C 1.421875 -16.910156 1.519531 -17.054688 1.65625 -17.171875 L 5.265625 -20.21875 C 5.359375 -20.289062 5.484375 -20.347656 5.640625 -20.390625 C 5.804688 -20.441406 5.984375 -20.46875 6.171875 -20.46875 L 10.6875 -20.46875 C 11.039062 -20.46875 11.332031 -20.394531 11.5625 -20.25 C 11.800781 -20.101562 12.023438 -19.851562 12.234375 -19.5 L 14.140625 -15.984375 L 14.390625 -16.4375 C 14.460938 -16.5625 14.539062 -16.6875 14.625 -16.8125 C 14.707031 -16.9375 14.796875 -17.035156 14.890625 -17.109375 L 18.515625 -20.140625 C 18.660156 -20.253906 18.8125 -20.335938 18.96875 -20.390625 C 19.132812 -20.441406 19.328125 -20.46875 19.546875 -20.46875 L 24.09375 -20.46875 C 24.539062 -20.46875 24.863281 -20.363281 25.0625 -20.15625 C 25.269531 -19.957031 25.375 -19.632812 25.375 -19.1875 L 25.375 -1.015625 C 25.375 -0.765625 25.34375 -0.554688 25.28125 -0.390625 C 25.21875 -0.222656 25.117188 -0.0820312 24.984375 0.03125 L 21.34375 3.0625 C 21.269531 3.132812 21.148438 3.195312 20.984375 3.25 C 20.828125 3.3125 20.65625 3.34375 20.46875 3.34375 L 16.15625 3.34375 C 15.6875 3.34375 15.351562 3.238281 15.15625 3.03125 C 14.957031 2.820312 14.859375 2.492188 14.859375 2.046875 L 14.859375 -5.359375 L 13.203125 -3.984375 C 13.054688 -3.847656 12.882812 -3.75 12.6875 -3.6875 C 12.488281 -3.625 12.257812 -3.59375 12 -3.59375 L 11.640625 -3.59375 L 11.640625 -1.015625 C 11.640625 -0.765625 11.601562 -0.554688 11.53125 -0.390625 C 11.46875 -0.222656 11.375 -0.0820312 11.25 0.03125 Z M 11.25 0.03125 "/></g></g></g></svg>